<?xml version="1.0" encoding="UTF-8"?>
<svg xmlns="http://www.w3.org/2000/svg" xmlns:xlink="http://www.w3.org/1999/xlink" width="12pt" height="12pt" viewBox="0 0 12 12" version="1.1">
<g id="surface1">
<path d="M 6 0.1875 C 2.789062 0.1875 0.1875 2.789062 0.1875 6 C 0.1875 9.210938 2.789062 11.8125 6 11.8125 C 9.210938 11.8125 11.8125 9.210938 11.8125 6 C 11.8125 2.789062 9.210938 0.1875 6 0.1875 Z M 6 10.6875 C 3.410156 10.6875 1.3125 8.589844 1.3125 6 C 1.3125 3.410156 3.410156 1.3125 6 1.3125 C 8.589844 1.3125 10.6875 3.410156 10.6875 6 C 10.6875 8.589844 8.589844 10.6875 6 10.6875 Z M 7.449219 8.242188 L 5.457031 6.792969 C 5.386719 6.742188 5.34375 6.65625 5.34375 6.566406 L 5.34375 2.71875 C 5.34375 2.5625 5.46875 2.4375 5.625 2.4375 L 6.375 2.4375 C 6.53125 2.4375 6.65625 2.5625 6.65625 2.71875 L 6.65625 6.039062 L 8.222656 7.179688 C 8.347656 7.269531 8.375 7.445312 8.28125 7.574219 L 7.84375 8.179688 C 7.75 8.304688 7.574219 8.332031 7.449219 8.242188 Z M 7.449219 8.242188 "/>
</g>
</svg>
